<?xml version="1.0" standalone="no"?>
<!DOCTYPE svg PUBLIC "-//W3C//DTD SVG 20010904//EN"
 "http://www.w3.org/TR/2001/REC-SVG-20010904/DTD/svg10.dtd">
<svg version="1.0" xmlns="http://www.w3.org/2000/svg"
 width="512.000000pt" height="512.000000pt" viewBox="0 0 512.000000 512.000000"
 preserveAspectRatio="xMidYMid meet">
<metadata>
Created by potrace 1.14, written by Peter Selinger 2001-2017
</metadata>
<g transform="translate(0.000000,512.000000) scale(0.100000,-0.100000)"
fill="#000000" stroke="none">
<path d="M2520 4585 l0 -535 465 0 465 0 0 535 0 535 -465 0 -465 0 0 -535z"/>
<path d="M1121 3840 c-4 -8 -7 -217 -6 -465 l0 -450 465 -2 466 -1 0 464 c0
255 -2 465 -5 465 -3 1 -210 2 -459 3 -396 1 -455 -1 -461 -14z"/>
<path d="M2522 2373 c1 -445 -1 -825 -5 -845 -47 -260 -163 -452 -320 -531
-160 -80 -448 -83 -687 -5 -127 41 -306 145 -433 251 -26 22 -49 38 -51 36 -1
-2 -130 -160 -285 -352 -155 -191 -284 -354 -287 -362 -4 -9 24 -37 78 -80
342 -271 683 -416 1103 -470 81 -11 364 -13 440 -4 85 10 135 18 155 24 8 2
31 6 50 9 55 8 215 64 304 105 309 146 561 417 709 761 16 36 32 74 37 85 27
64 85 280 96 360 3 22 8 51 12 65 3 14 7 415 9 893 l4 867 -465 0 -466 0 2
-807z"/>
<path d="M3610 711 c-50 -27 -90 -69 -112 -119 -26 -59 -30 -77 -32 -157 -7
-220 164 -362 331 -277 92 47 136 140 136 282 0 96 -17 152 -63 210 -60 75
-180 103 -260 61z m134 -77 c56 -27 81 -89 80 -199 -2 -139 -44 -210 -125
-208 -83 2 -136 99 -127 232 8 113 52 177 130 190 4 0 23 -6 42 -15z"/>
<path d="M4024 721 c-2 -2 -4 -134 -4 -292 l0 -287 50 1 c44 0 50 3 51 21 0
32 0 518 0 541 -1 17 -8 20 -47 20 -25 0 -48 -2 -50 -4z"/>
<path d="M4248 722 c-13 -2 -15 -41 -14 -290 l1 -287 45 0 45 0 -1 215 -1 214
34 -74 c18 -41 66 -139 105 -217 l72 -141 53 1 53 0 0 292 0 291 -41 -2 c-23
-1 -44 -7 -48 -13 -8 -12 -5 -367 3 -388 3 -7 3 -13 0 -13 -2 0 -14 21 -25 48
-11 26 -56 119 -101 207 l-80 160 -42 0 c-23 0 -49 -1 -58 -3z"/>
</g>
</svg>
